# Blender 4.3.2
# www.blender.org
mtllib Dish.mtl
o Icosphere
v 0.000001 -0.105500 0.000000
v 0.723607 0.018772 0.525725
v -0.276387 0.018773 0.850649
v -0.894426 0.018773 -0.000000
v -0.276387 0.018772 -0.850649
v 0.723607 0.018772 -0.525725
v -0.232821 -0.028505 0.716563
v -0.162455 -0.071925 0.499995
v -0.077606 -0.105500 0.238853
v 0.203182 -0.105500 0.147618
v 0.425324 -0.071925 0.309011
v 0.609547 -0.028506 0.442856
v 0.531941 0.006390 0.681712
v 0.262870 0.001121 0.809012
v -0.029638 0.006390 0.864184
v 0.812729 0.006389 -0.295238
v 0.850648 0.001120 -0.000000
v 0.812729 0.006389 0.295238
v 0.203182 -0.105500 -0.147618
v 0.425324 -0.071925 -0.309011
v 0.609547 -0.028506 -0.442856
v -0.753442 -0.028505 0.000000
v -0.525730 -0.071925 0.000000
v -0.251146 -0.105500 0.000000
v -0.483970 0.006390 0.716565
v -0.688189 0.001120 0.499997
v -0.831051 0.006389 0.238853
v -0.232821 -0.028506 -0.716563
v -0.162455 -0.071925 -0.499995
v -0.077606 -0.105500 -0.238853
v -0.831051 0.006389 -0.238853
v -0.688189 0.001120 -0.499997
v -0.483970 0.006389 -0.716565
v -0.029638 0.006389 -0.864184
v 0.262870 0.001120 -0.809012
v 0.531941 0.006389 -0.681712
v 0.951058 0.119312 0.309013
v 0.860698 0.062850 0.442858
v 0.860698 0.062850 -0.442858
v 0.951058 0.119312 -0.309013
v 0.000001 0.119313 1.000000
v -0.155214 0.062851 0.955422
v 0.687159 0.062850 0.681715
v 0.587786 0.119313 0.809017
v -0.951057 0.119312 0.309013
v -0.956626 0.062851 0.147618
v -0.436006 0.062851 0.864188
v -0.587786 0.119313 0.809017
v -0.587786 0.119312 -0.809017
v -0.436006 0.062850 -0.864188
v -0.956626 0.062851 -0.147618
v -0.951057 0.119312 -0.309013
v 0.587786 0.119312 -0.809017
v 0.687159 0.062850 -0.681715
v -0.155214 0.062850 -0.955422
v 0.000001 0.119312 -1.000000
v 0.809020 0.119312 -0.587782
v -0.309015 0.119312 -0.951057
v -1.000000 0.119312 -0.000000
v -0.309016 0.119313 0.951056
v 0.809020 0.119312 0.587783
v 0.309018 0.119312 -0.951056
v 0.447217 0.057175 -0.850648
v 0.138200 0.057175 -0.951055
v -0.809018 0.119312 -0.587783
v -0.670819 0.057175 -0.688191
v -0.861803 0.057175 -0.425324
v -0.809018 0.119312 0.587783
v -0.861803 0.057175 0.425324
v -0.670819 0.057175 0.688191
v 0.309018 0.119313 0.951056
v 0.138200 0.057176 0.951055
v 0.447217 0.057176 0.850648
v 1.000000 0.119312 -0.000000
v 0.947213 0.057175 0.162458
v 0.947213 0.057175 -0.162458
v 0.361804 -0.043365 -0.587779
v 0.138198 -0.081766 -0.425321
v 0.052790 -0.043364 -0.688186
v -0.447210 -0.043365 -0.525727
v -0.361800 -0.081766 -0.262863
v -0.638195 -0.043364 -0.262863
v -0.638195 -0.043364 0.262864
v -0.361800 -0.081766 0.262864
v -0.447210 -0.043364 0.525729
v 0.670817 -0.043364 -0.162457
v 0.670818 -0.043364 0.162458
v 0.447212 -0.081766 0.000001
v 0.052791 -0.043364 0.688185
v 0.138200 -0.081766 0.425321
v 0.361805 -0.043364 0.587779
v 0.000001 -0.055500 0.000000
v 0.705635 0.063566 0.512668
v -0.269524 0.063567 0.829522
v -0.872212 0.063567 -0.000000
v -0.269524 0.063566 -0.829522
v 0.705635 0.063566 -0.512668
v -0.228872 0.019835 0.704411
v -0.160126 -0.022497 0.492827
v -0.076510 -0.055626 0.235481
v 0.200314 -0.055626 0.145534
v 0.419226 -0.022497 0.304581
v 0.599209 0.019834 0.435346
v 0.520072 0.052415 0.666195
v 0.257102 0.047506 0.791259
v -0.029158 0.052415 0.844654
v 0.794303 0.052414 -0.288746
v 0.831982 0.047505 -0.000000
v 0.794303 0.052414 0.288746
v 0.200314 -0.055626 -0.145534
v 0.419226 -0.022497 -0.304581
v 0.599209 0.019834 -0.435346
v -0.740664 0.019835 -0.000000
v -0.518193 -0.022496 0.000000
v -0.247601 -0.055626 0.000000
v -0.472880 0.052415 0.700482
v -0.673088 0.047505 0.489025
v -0.812328 0.052415 0.233275
v -0.228872 0.019834 -0.704411
v -0.160126 -0.022497 -0.492827
v -0.076510 -0.055626 -0.235481
v -0.812328 0.052415 -0.233275
v -0.673088 0.047505 -0.489025
v -0.472880 0.052414 -0.700482
v -0.029158 0.052414 -0.844654
v 0.257102 0.047505 -0.791259
v 0.520072 0.052414 -0.666195
v 0.911539 0.147201 0.296345
v 0.827101 0.095741 0.425843
v 0.827101 0.095741 -0.425843
v 0.911539 0.147201 -0.296345
v -0.000163 0.147203 0.958501
v -0.149414 0.095742 0.918213
v 0.660595 0.095742 0.655021
v 0.563526 0.147203 0.775347
v -0.911641 0.147202 0.296033
v -0.919445 0.095742 0.141636
v -0.418828 0.095742 0.830676
v -0.563260 0.147203 0.775540
v -0.563260 0.147202 -0.775540
v -0.418828 0.095741 -0.830676
v -0.919445 0.095742 -0.141636
v -0.911641 0.147202 -0.296033
v 0.563526 0.147202 -0.775347
v 0.660595 0.095741 -0.655021
v -0.149414 0.095741 -0.918213
v -0.000163 0.147202 -0.958501
v 0.775130 0.146611 -0.563160
v -0.296071 0.146611 -0.911217
v -0.958109 0.146611 -0.000000
v -0.296072 0.146612 0.911217
v 0.775129 0.146611 0.563161
v 0.296533 0.148766 -0.912630
v 0.430894 0.092189 -0.818906
v 0.132746 0.092189 -0.915781
v -0.776331 0.148767 -0.564035
v -0.645674 0.092189 -0.662859
v -0.829940 0.092190 -0.409237
v -0.776331 0.148766 0.564035
v -0.829940 0.092190 0.409237
v -0.645674 0.092189 0.662859
v 0.296533 0.148767 0.912630
v 0.132746 0.092190 0.915781
v 0.430894 0.092190 0.818906
v 0.959596 0.148766 -0.000000
v 0.911981 0.092190 0.156744
v 0.911981 0.092190 -0.156744
v 0.356192 0.005434 -0.578443
v 0.136151 -0.032207 -0.419021
v 0.051842 0.005435 -0.677334
v -0.440064 0.005434 -0.517505
v -0.356441 -0.032207 -0.258969
v -0.628166 0.005435 -0.258608
v -0.628166 0.005435 0.258609
v -0.356441 -0.032207 0.258971
v -0.440064 0.005435 0.517506
v 0.660203 0.005435 -0.160005
v 0.660204 0.005435 0.160006
v 0.440588 -0.032207 0.000001
v 0.051844 0.005435 0.677334
v 0.136153 -0.032207 0.419021
v 0.356194 0.005435 0.578443
vn -0.0000 -1.0000 -0.0000
vn 0.0574 -0.9975 0.0417
vn -0.0219 -0.9975 0.0674
vn 0.3594 -0.8959 0.2611
vn 0.2068 -0.9668 0.1502
vn 0.3685 -0.9205 0.1298
vn -0.0709 -0.9975 -0.0000
vn -0.0219 -0.9975 -0.0674
vn 0.0574 -0.9975 -0.0417
vn 0.6719 -0.6578 0.3403
vn -0.1373 -0.8959 0.4225
vn -0.0096 -0.9205 0.3906
vn -0.1160 -0.6578 0.7442
vn -0.4443 -0.8959 -0.0000
vn -0.3745 -0.9205 0.1116
vn -0.7436 -0.6578 0.1196
vn -0.1373 -0.8959 -0.4225
vn -0.2218 -0.9205 -0.3217
vn -0.3436 -0.6578 -0.6702
vn 0.3594 -0.8959 -0.2611
vn 0.2374 -0.9205 -0.3104
vn 0.5313 -0.6578 -0.5339
vn 0.5313 -0.6578 0.5339
vn -0.3436 -0.6578 0.6702
vn -0.7436 -0.6578 -0.1196
vn -0.1160 -0.6578 -0.7442
vn 0.6719 -0.6578 -0.3403
vn 0.7941 0.1911 -0.5769
vn 0.9365 0.1789 -0.3017
vn 0.5763 0.1789 -0.7974
vn -0.3033 0.1911 -0.9335
vn 0.0025 0.1789 -0.9839
vn -0.5803 0.1789 -0.7945
vn -0.9816 0.1911 -0.0000
vn -0.9350 0.1789 -0.3064
vn -0.9350 0.1789 0.3064
vn -0.3033 0.1911 0.9335
vn -0.5803 0.1789 0.7945
vn 0.0025 0.1789 0.9839
vn 0.7941 0.1911 0.5769
vn 0.5763 0.1789 0.7974
vn 0.9365 0.1789 0.3017
vn 0.3264 -0.7003 -0.6348
vn 0.3057 0.1454 -0.9409
vn 0.1091 -0.7003 -0.7055
vn 0.1154 -0.9277 -0.3551
vn -0.0096 -0.9205 -0.3906
vn -0.5029 -0.7003 -0.5066
vn -0.8004 0.1454 -0.5815
vn -0.6372 -0.7003 -0.3217
vn -0.3020 -0.9277 -0.2194
vn -0.3745 -0.9205 -0.1116
vn -0.6372 -0.7003 0.3217
vn -0.8004 0.1454 0.5815
vn -0.5029 -0.7003 0.5066
vn -0.3020 -0.9277 0.2194
vn -0.2218 -0.9205 0.3217
vn 0.1091 -0.7003 0.7055
vn 0.3057 0.1454 0.9409
vn 0.3264 -0.7003 0.6348
vn 0.1154 -0.9277 0.3551
vn 0.2374 -0.9205 0.3104
vn 0.7046 -0.7003 0.1143
vn 0.9894 0.1454 -0.0000
vn 0.7046 -0.7003 -0.1143
vn 0.3733 -0.9277 -0.0000
vn 0.3685 -0.9205 -0.1298
vn 0.2068 -0.9668 -0.1502
vn 0.1220 -0.9886 -0.0886
vn 0.1122 -0.9760 -0.1867
vn 0.0409 -0.9912 -0.1260
vn 0.0190 -0.9760 -0.2170
vn -0.0466 -0.9886 -0.1434
vn -0.0790 -0.9668 -0.2430
vn -0.1429 -0.9760 -0.1644
vn -0.1072 -0.9912 -0.0779
vn -0.2006 -0.9760 -0.0851
vn -0.1507 -0.9886 -0.0000
vn -0.2556 -0.9668 -0.0000
vn -0.2006 -0.9760 0.0851
vn -0.1072 -0.9912 0.0779
vn -0.1429 -0.9760 0.1645
vn -0.0466 -0.9886 0.1434
vn -0.0790 -0.9668 0.2431
vn 0.2123 -0.9760 -0.0490
vn 0.2123 -0.9760 0.0490
vn 0.1325 -0.9912 -0.0000
vn 0.1219 -0.9886 0.0886
vn 0.0190 -0.9760 0.2170
vn 0.0409 -0.9912 0.1260
vn 0.1122 -0.9760 0.1867
vn -0.0000 1.0000 -0.0000
vn 0.0219 0.9975 -0.0674
vn -0.0573 0.9975 -0.0417
vn -0.3512 0.9009 -0.2551
vn -0.3580 0.9252 -0.1260
vn -0.2057 0.9671 -0.1494
vn 0.0709 0.9975 -0.0000
vn 0.0219 0.9975 0.0674
vn -0.0573 0.9975 0.0417
vn -0.6697 0.6600 -0.3404
vn 0.1341 0.9009 -0.4128
vn 0.1168 0.6600 -0.7421
vn 0.0092 0.9252 -0.3794
vn 0.4341 0.9009 -0.0000
vn 0.7419 0.6600 -0.1182
vn 0.3637 0.9252 -0.1085
vn 0.1341 0.9009 0.4128
vn 0.3417 0.6600 0.6691
vn 0.2156 0.9252 0.3124
vn -0.3512 0.9009 0.2551
vn -0.5307 0.6600 0.5317
vn -0.2305 0.9252 0.3015
vn -0.5307 0.6600 -0.5317
vn 0.3417 0.6600 -0.6691
vn 0.7419 0.6600 0.1182
vn 0.1168 0.6600 0.7421
vn -0.6697 0.6600 0.3404
vn -0.1219 0.9918 0.0378
vn -0.1150 0.9898 0.0836
vn -0.0736 0.9918 0.1042
vn -0.0017 0.9918 0.1276
vn 0.0439 0.9898 0.1352
vn 0.0764 0.9918 0.1022
vn 0.1208 0.9918 0.0411
vn 0.1422 0.9898 -0.0000
vn 0.1208 0.9918 -0.0411
vn 0.0764 0.9918 -0.1022
vn 0.0439 0.9898 -0.1352
vn -0.0017 0.9918 -0.1276
vn -0.0736 0.9918 -0.1042
vn -0.1150 0.9898 -0.0836
vn -0.1219 0.9918 -0.0378
vn -0.3276 0.6988 0.6359
vn -0.0268 0.9962 0.0826
vn -0.1088 0.6988 0.7070
vn -0.1125 0.9314 0.3462
vn 0.0092 0.9252 0.3794
vn 0.5035 0.6988 0.5080
vn 0.0703 0.9962 0.0511
vn 0.6388 0.6988 0.3219
vn 0.2945 0.9314 0.2140
vn 0.3637 0.9252 0.1085
vn 0.6388 0.6988 -0.3219
vn 0.0703 0.9962 -0.0511
vn 0.5035 0.6988 -0.5080
vn 0.2945 0.9314 -0.2140
vn 0.2156 0.9252 -0.3124
vn -0.1088 0.6988 -0.7070
vn -0.0268 0.9962 -0.0826
vn -0.3276 0.6988 -0.6359
vn -0.1125 0.9314 -0.3462
vn -0.2305 0.9252 -0.3015
vn -0.7060 0.6988 -0.1150
vn -0.0869 0.9962 -0.0000
vn -0.7060 0.6988 0.1150
vn -0.3641 0.9314 -0.0000
vn -0.3580 0.9252 0.1260
vn -0.2057 0.9671 0.1494
vn -0.1218 0.9886 0.0885
vn -0.1118 0.9762 0.1860
vn -0.0409 0.9912 0.1259
vn -0.0188 0.9762 0.2162
vn 0.0465 0.9886 0.1432
vn 0.0786 0.9671 0.2418
vn 0.1423 0.9762 0.1638
vn 0.1071 0.9912 0.0778
vn 0.1998 0.9762 0.0847
vn 0.1506 0.9886 -0.0000
vn 0.2542 0.9671 -0.0000
vn 0.1998 0.9762 -0.0847
vn 0.1071 0.9912 -0.0778
vn 0.1423 0.9762 -0.1638
vn 0.0465 0.9886 -0.1432
vn 0.0786 0.9671 -0.2418
vn -0.2114 0.9762 0.0489
vn -0.2114 0.9762 -0.0489
vn -0.1324 0.9912 -0.0000
vn -0.1218 0.9886 -0.0885
vn -0.0188 0.9762 -0.2162
vn -0.0409 0.9912 -0.1259
vn -0.1118 0.9762 -0.1860
vt 0.709086 0.709185
vt 0.719555 0.775759
vt 0.649006 0.739714
vt 0.747135 0.951148
vt 0.740851 0.911182
vt 0.808856 0.923565
vt 0.661485 0.661479
vt 0.739748 0.649173
vt 0.775636 0.719802
vt 0.790767 0.965557
vt 0.490724 0.820143
vt 0.536030 0.870320
vt 0.490502 0.866091
vt 0.536082 0.535797
vt 0.502361 0.594391
vt 0.492314 0.549785
vt 0.820527 0.491069
vt 0.754380 0.477105
vt 0.793698 0.453766
vt 0.950964 0.747771
vt 0.943804 0.680546
vt 0.978151 0.710727
vt 0.710031 0.978253
vt 0.453480 0.793230
vt 0.550167 0.492061
vt 0.866476 0.490950
vt 0.965277 0.791434
vt 0.993572 0.754567
vt 0.966312 0.840161
vt 0.994295 0.664739
vt 0.840157 0.452647
vt 0.913138 0.505022
vt 0.754949 0.424201
vt 0.505607 0.505255
vt 0.577971 0.452032
vt 0.452224 0.577500
vt 0.452258 0.839687
vt 0.424001 0.754416
vt 0.504472 0.912784
vt 0.753837 0.993771
vt 0.664007 0.994295
vt 0.839492 0.966700
vt 0.964331 0.630261
vt 0.966456 0.578407
vt 0.923321 0.549553
vt 0.916399 0.603844
vt 0.870604 0.536486
vt 0.712899 0.442044
vt 0.664240 0.424000
vt 0.623468 0.456107
vt 0.672962 0.479467
vt 0.594750 0.502206
vt 0.456199 0.623007
vt 0.424001 0.663707
vt 0.441937 0.712406
vt 0.479449 0.672553
vt 0.476906 0.753965
vt 0.548979 0.923066
vt 0.577738 0.966265
vt 0.629597 0.964255
vt 0.603286 0.916264
vt 0.679927 0.943839
vt 0.863023 0.927549
vt 0.912995 0.913546
vt 0.927108 0.863606
vt 0.873335 0.873799
vt 0.923244 0.809431
vt 0.911012 0.741398
vt 0.849128 0.731526
vt 0.891080 0.666084
vt 0.816528 0.654591
vt 0.851200 0.587599
vt 0.773608 0.582901
vt 0.802120 0.527096
vt 0.724333 0.522780
vt 0.690365 0.590131
vt 0.637365 0.536455
vt 0.608920 0.608797
vt 0.564657 0.564435
vt 0.536515 0.637081
vt 0.590074 0.690200
vt 0.522647 0.724019
vt 0.582659 0.773427
vt 0.526791 0.801816
vt 0.868637 0.806771
vt 0.806318 0.868953
vt 0.794210 0.794499
vt 0.731116 0.849276
vt 0.587185 0.851029
vt 0.654254 0.816507
vt 0.665582 0.891083
vt 0.291972 0.292210
vt 0.338694 0.245172
vt 0.351145 0.322110
vt 0.504582 0.399639
vt 0.461003 0.448951
vt 0.470977 0.382659
vt 0.261673 0.233239
vt 0.226525 0.302802
vt 0.281822 0.357727
vt 0.501021 0.441632
vt 0.459843 0.123203
vt 0.498680 0.139566
vt 0.493276 0.179887
vt 0.183111 0.080328
vt 0.210674 0.048449
vt 0.247351 0.066048
vt 0.056821 0.330268
vt 0.035019 0.294202
vt 0.063092 0.264758
vt 0.255502 0.527612
vt 0.214464 0.537202
vt 0.195136 0.501405
vt 0.536275 0.371861
vt 0.443219 0.084477
vt 0.141144 0.084172
vt 0.047508 0.371369
vt 0.291714 0.549170
vt 0.335617 0.563076
vt 0.250039 0.562876
vt 0.168411 0.537172
vt 0.047849 0.417420
vt 0.021595 0.335968
vt 0.020817 0.250394
vt 0.097453 0.098726
vt 0.166804 0.048588
vt 0.247948 0.021405
vt 0.415874 0.047421
vt 0.484990 0.097884
vt 0.535919 0.166658
vt 0.563068 0.334404
vt 0.536432 0.415732
vt 0.486761 0.485421
vt 0.145094 0.501459
vt 0.098348 0.487144
vt 0.083718 0.440497
vt 0.132108 0.453157
vt 0.083435 0.390456
vt 0.047576 0.217181
vt 0.046745 0.168300
vt 0.086589 0.139972
vt 0.089502 0.189904
vt 0.134094 0.124238
vt 0.287805 0.036591
vt 0.334036 0.020695
vt 0.373292 0.049835
vt 0.326702 0.068035
vt 0.402935 0.090153
vt 0.533793 0.209257
vt 0.563197 0.248314
vt 0.547613 0.294652
vt 0.515907 0.255968
vt 0.518428 0.335304
vt 0.445591 0.496562
vt 0.417532 0.536595
vt 0.368647 0.536094
vt 0.395640 0.493986
vt 0.320967 0.520899
vt 0.261267 0.490404
vt 0.270618 0.430041
vt 0.196833 0.449335
vt 0.208474 0.376274
vt 0.135492 0.388407
vt 0.154288 0.314494
vt 0.093989 0.324253
vt 0.113137 0.250281
vt 0.186220 0.238775
vt 0.152128 0.173114
vt 0.228232 0.168149
vt 0.200317 0.113818
vt 0.276585 0.109171
vt 0.310112 0.175122
vt 0.362023 0.122408
vt 0.390263 0.193254
vt 0.433310 0.149916
vt 0.335106 0.470757
vt 0.412007 0.431247
vt 0.346119 0.397599
vt 0.416458 0.355112
vt 0.461297 0.221015
vt 0.408935 0.273281
vt 0.475110 0.306362
vt 0.247869 0.576883
vt 0.337893 0.577289
vt 0.007602 0.338233
vt 0.035035 0.423976
vt 0.160326 0.035981
vt 0.087257 0.088566
vt 0.494979 0.087828
vt 0.422387 0.034584
vt 0.549083 0.422125
vt 0.577289 0.336631
vt 0.088287 0.497273
vt 0.161941 0.550030
vt 0.034004 0.161862
vt 0.006589 0.248213
vt 0.336222 0.006588
vt 0.245625 0.007200
vt 0.577289 0.246033
vt 0.548711 0.160059
vt 0.424056 0.549293
vt 0.496990 0.495547
s 1
usemtl Material
f 1/1/1 10/2/2 9/3/3
f 2/4/4 12/5/5 18/6/6
f 1/1/1 9/3/3 24/7/7
f 1/1/1 24/7/7 30/8/8
f 1/1/1 30/8/8 19/9/9
f 2/4/4 18/6/6 38/10/10
f 3/11/11 15/12/12 42/13/13
f 4/14/14 27/15/15 46/16/16
f 5/17/17 33/18/18 50/19/19
f 6/20/20 36/21/21 54/22/22
f 2/4/4 38/10/10 43/23/23
f 3/11/11 42/13/13 47/24/24
f 4/14/14 46/16/16 51/25/25
f 5/17/17 50/19/19 55/26/26
f 6/20/20 54/22/22 39/27/27
f 39/27/27 57/28/28 40/29/29
f 39/27/27 54/22/22 57/28/28
f 54/22/22 53/30/30 57/28/28
f 55/26/26 58/31/31 56/32/32
f 55/26/26 50/19/19 58/31/31
f 50/19/19 49/33/33 58/31/31
f 51/25/25 59/34/34 52/35/35
f 51/25/25 46/16/16 59/34/34
f 46/16/16 45/36/36 59/34/34
f 47/24/24 60/37/37 48/38/38
f 47/24/24 42/13/13 60/37/37
f 42/13/13 41/39/39 60/37/37
f 43/23/23 61/40/40 44/41/41
f 43/23/23 38/10/10 61/40/40
f 38/10/10 37/42/42 61/40/40
f 54/22/22 63/43/43 53/30/30
f 53/30/30 63/43/43 62/44/44
f 63/43/43 64/45/45 62/44/44
f 62/44/44 64/45/45 56/32/32
f 64/45/45 55/26/26 56/32/32
f 54/22/22 36/21/21 63/43/43
f 36/21/21 35/46/46 63/43/43
f 63/43/43 35/46/46 64/45/45
f 35/46/46 34/47/47 64/45/45
f 64/45/45 34/47/47 55/26/26
f 34/47/47 5/17/17 55/26/26
f 50/19/19 66/48/48 49/33/33
f 49/33/33 66/48/48 65/49/49
f 66/48/48 67/50/50 65/49/49
f 65/49/49 67/50/50 52/35/35
f 67/50/50 51/25/25 52/35/35
f 50/19/19 33/18/18 66/48/48
f 33/18/18 32/51/51 66/48/48
f 66/48/48 32/51/51 67/50/50
f 32/51/51 31/52/52 67/50/50
f 67/50/50 31/52/52 51/25/25
f 31/52/52 4/14/14 51/25/25
f 46/16/16 69/53/53 45/36/36
f 45/36/36 69/53/53 68/54/54
f 69/53/53 70/55/55 68/54/54
f 68/54/54 70/55/55 48/38/38
f 70/55/55 47/24/24 48/38/38
f 46/16/16 27/15/15 69/53/53
f 27/15/15 26/56/56 69/53/53
f 69/53/53 26/56/56 70/55/55
f 26/56/56 25/57/57 70/55/55
f 70/55/55 25/57/57 47/24/24
f 25/57/57 3/11/11 47/24/24
f 42/13/13 72/58/58 41/39/39
f 41/39/39 72/58/58 71/59/59
f 72/58/58 73/60/60 71/59/59
f 71/59/59 73/60/60 44/41/41
f 73/60/60 43/23/23 44/41/41
f 42/13/13 15/12/12 72/58/58
f 15/12/12 14/61/61 72/58/58
f 72/58/58 14/61/61 73/60/60
f 14/61/61 13/62/62 73/60/60
f 73/60/60 13/62/62 43/23/23
f 13/62/62 2/4/4 43/23/23
f 38/10/10 75/63/63 37/42/42
f 37/42/42 75/63/63 74/64/64
f 75/63/63 76/65/65 74/64/64
f 74/64/64 76/65/65 40/29/29
f 76/65/65 39/27/27 40/29/29
f 38/10/10 18/6/6 75/63/63
f 18/6/6 17/66/66 75/63/63
f 75/63/63 17/66/66 76/65/65
f 17/66/66 16/67/67 76/65/65
f 76/65/65 16/67/67 39/27/27
f 16/67/67 6/20/20 39/27/27
f 21/68/68 36/21/21 6/20/20
f 20/69/69 77/70/70 21/68/68
f 19/9/9 78/71/71 20/69/69
f 21/68/68 77/70/70 36/21/21
f 77/70/70 35/46/46 36/21/21
f 20/69/69 78/71/71 77/70/70
f 78/71/71 79/72/72 77/70/70
f 77/70/70 79/72/72 35/46/46
f 79/72/72 34/47/47 35/46/46
f 19/9/9 30/8/8 78/71/71
f 30/8/8 29/73/73 78/71/71
f 78/71/71 29/73/73 79/72/72
f 29/73/73 28/74/74 79/72/72
f 79/72/72 28/74/74 34/47/47
f 28/74/74 5/17/17 34/47/47
f 28/74/74 33/18/18 5/17/17
f 29/73/73 80/75/75 28/74/74
f 30/8/8 81/76/76 29/73/73
f 28/74/74 80/75/75 33/18/18
f 80/75/75 32/51/51 33/18/18
f 29/73/73 81/76/76 80/75/75
f 81/76/76 82/77/77 80/75/75
f 80/75/75 82/77/77 32/51/51
f 82/77/77 31/52/52 32/51/51
f 30/8/8 24/7/7 81/76/76
f 24/7/7 23/78/78 81/76/76
f 81/76/76 23/78/78 82/77/77
f 23/78/78 22/79/79 82/77/77
f 82/77/77 22/79/79 31/52/52
f 22/79/79 4/14/14 31/52/52
f 22/79/79 27/15/15 4/14/14
f 23/78/78 83/80/80 22/79/79
f 24/7/7 84/81/81 23/78/78
f 22/79/79 83/80/80 27/15/15
f 83/80/80 26/56/56 27/15/15
f 23/78/78 84/81/81 83/80/80
f 84/81/81 85/82/82 83/80/80
f 83/80/80 85/82/82 26/56/56
f 85/82/82 25/57/57 26/56/56
f 24/7/7 9/3/3 84/81/81
f 9/3/3 8/83/83 84/81/81
f 84/81/81 8/83/83 85/82/82
f 8/83/83 7/84/84 85/82/82
f 85/82/82 7/84/84 25/57/57
f 7/84/84 3/11/11 25/57/57
f 16/67/67 21/68/68 6/20/20
f 17/66/66 86/85/85 16/67/67
f 18/6/6 87/86/86 17/66/66
f 16/67/67 86/85/85 21/68/68
f 86/85/85 20/69/69 21/68/68
f 17/66/66 87/86/86 86/85/85
f 87/86/86 88/87/87 86/85/85
f 86/85/85 88/87/87 20/69/69
f 88/87/87 19/9/9 20/69/69
f 18/6/6 12/5/5 87/86/86
f 12/5/5 11/88/88 87/86/86
f 87/86/86 11/88/88 88/87/87
f 11/88/88 10/2/2 88/87/87
f 88/87/87 10/2/2 19/9/9
f 10/2/2 1/1/1 19/9/9
f 7/84/84 15/12/12 3/11/11
f 8/83/83 89/89/89 7/84/84
f 9/3/3 90/90/90 8/83/83
f 7/84/84 89/89/89 15/12/12
f 89/89/89 14/61/61 15/12/12
f 8/83/83 90/90/90 89/89/89
f 90/90/90 91/91/91 89/89/89
f 89/89/89 91/91/91 14/61/61
f 91/91/91 13/62/62 14/61/61
f 9/3/3 10/2/2 90/90/90
f 10/2/2 11/88/88 90/90/90
f 90/90/90 11/88/88 91/91/91
f 11/88/88 12/5/5 91/91/91
f 91/91/91 12/5/5 13/62/62
f 12/5/5 2/4/4 13/62/62
f 92/92/92 100/93/93 101/94/94
f 93/95/95 109/96/96 103/97/97
f 92/92/92 115/98/98 100/93/93
f 92/92/92 121/99/99 115/98/98
f 92/92/92 110/100/100 121/99/99
f 93/95/95 129/101/101 109/96/96
f 94/102/102 133/103/103 106/104/104
f 95/105/105 137/106/106 118/107/107
f 96/108/108 141/109/109 124/110/110
f 97/111/111 145/112/112 127/113/113
f 93/95/95 134/114/114 129/101/101
f 94/102/102 138/115/115 133/103/103
f 95/105/105 142/116/116 137/106/106
f 96/108/108 146/117/117 141/109/109
f 97/111/111 130/118/118 145/112/112
f 130/118/118 131/119/119 148/120/120
f 130/118/118 148/120/120 145/112/112
f 145/112/112 148/120/120 144/121/121
f 146/117/117 147/122/122 149/123/123
f 146/117/117 149/123/123 141/109/109
f 141/109/109 149/123/123 140/124/124
f 142/116/116 143/125/125 150/126/126
f 142/116/116 150/126/126 137/106/106
f 137/106/106 150/126/126 136/127/127
f 138/115/115 139/128/128 151/129/129
f 138/115/115 151/129/129 133/103/103
f 133/103/103 151/129/129 132/130/130
f 134/114/114 135/131/131 152/132/132
f 134/114/114 152/132/132 129/101/101
f 129/101/101 152/132/132 128/133/133
f 145/112/112 144/121/121 154/134/134
f 144/121/121 153/135/135 154/134/134
f 154/134/134 153/135/135 155/136/136
f 153/135/135 147/122/122 155/136/136
f 155/136/136 147/122/122 146/117/117
f 145/112/112 154/134/134 127/113/113
f 127/113/113 154/134/134 126/137/137
f 154/134/134 155/136/136 126/137/137
f 126/137/137 155/136/136 125/138/138
f 155/136/136 146/117/117 125/138/138
f 125/138/138 146/117/117 96/108/108
f 141/109/109 140/124/124 157/139/139
f 140/124/124 156/140/140 157/139/139
f 157/139/139 156/140/140 158/141/141
f 156/140/140 143/125/125 158/141/141
f 158/141/141 143/125/125 142/116/116
f 141/109/109 157/139/139 124/110/110
f 124/110/110 157/139/139 123/142/142
f 157/139/139 158/141/141 123/142/142
f 123/142/142 158/141/141 122/143/143
f 158/141/141 142/116/116 122/143/143
f 122/143/143 142/116/116 95/105/105
f 137/106/106 136/127/127 160/144/144
f 136/127/127 159/145/145 160/144/144
f 160/144/144 159/145/145 161/146/146
f 159/145/145 139/128/128 161/146/146
f 161/146/146 139/128/128 138/115/115
f 137/106/106 160/144/144 118/107/107
f 118/107/107 160/144/144 117/147/147
f 160/144/144 161/146/146 117/147/147
f 117/147/147 161/146/146 116/148/148
f 161/146/146 138/115/115 116/148/148
f 116/148/148 138/115/115 94/102/102
f 133/103/103 132/130/130 163/149/149
f 132/130/130 162/150/150 163/149/149
f 163/149/149 162/150/150 164/151/151
f 162/150/150 135/131/131 164/151/151
f 164/151/151 135/131/131 134/114/114
f 133/103/103 163/149/149 106/104/104
f 106/104/104 163/149/149 105/152/152
f 163/149/149 164/151/151 105/152/152
f 105/152/152 164/151/151 104/153/153
f 164/151/151 134/114/114 104/153/153
f 104/153/153 134/114/114 93/95/95
f 129/101/101 128/133/133 166/154/154
f 128/133/133 165/155/155 166/154/154
f 166/154/154 165/155/155 167/156/156
f 165/155/155 131/119/119 167/156/156
f 167/156/156 131/119/119 130/118/118
f 129/101/101 166/154/154 109/96/96
f 109/96/96 166/154/154 108/157/157
f 166/154/154 167/156/156 108/157/157
f 108/157/157 167/156/156 107/158/158
f 167/156/156 130/118/118 107/158/158
f 107/158/158 130/118/118 97/111/111
f 112/159/159 97/111/111 127/113/113
f 111/160/160 112/159/159 168/161/161
f 110/100/100 111/160/160 169/162/162
f 112/159/159 127/113/113 168/161/161
f 168/161/161 127/113/113 126/137/137
f 111/160/160 168/161/161 169/162/162
f 169/162/162 168/161/161 170/163/163
f 168/161/161 126/137/137 170/163/163
f 170/163/163 126/137/137 125/138/138
f 110/100/100 169/162/162 121/99/99
f 121/99/99 169/162/162 120/164/164
f 169/162/162 170/163/163 120/164/164
f 120/164/164 170/163/163 119/165/165
f 170/163/163 125/138/138 119/165/165
f 119/165/165 125/138/138 96/108/108
f 119/165/165 96/108/108 124/110/110
f 120/164/164 119/165/165 171/166/166
f 121/99/99 120/164/164 172/167/167
f 119/165/165 124/110/110 171/166/166
f 171/166/166 124/110/110 123/142/142
f 120/164/164 171/166/166 172/167/167
f 172/167/167 171/166/166 173/168/168
f 171/166/166 123/142/142 173/168/168
f 173/168/168 123/142/142 122/143/143
f 121/99/99 172/167/167 115/98/98
f 115/98/98 172/167/167 114/169/169
f 172/167/167 173/168/168 114/169/169
f 114/169/169 173/168/168 113/170/170
f 173/168/168 122/143/143 113/170/170
f 113/170/170 122/143/143 95/105/105
f 113/170/170 95/105/105 118/107/107
f 114/169/169 113/170/170 174/171/171
f 115/98/98 114/169/169 175/172/172
f 113/170/170 118/107/107 174/171/171
f 174/171/171 118/107/107 117/147/147
f 114/169/169 174/171/171 175/172/172
f 175/172/172 174/171/171 176/173/173
f 174/171/171 117/147/147 176/173/173
f 176/173/173 117/147/147 116/148/148
f 115/98/98 175/172/172 100/93/93
f 100/93/93 175/172/172 99/174/174
f 175/172/172 176/173/173 99/174/174
f 99/174/174 176/173/173 98/175/175
f 176/173/173 116/148/148 98/175/175
f 98/175/175 116/148/148 94/102/102
f 107/158/158 97/111/111 112/159/159
f 108/157/157 107/158/158 177/176/176
f 109/96/96 108/157/157 178/177/177
f 107/158/158 112/159/159 177/176/176
f 177/176/176 112/159/159 111/160/160
f 108/157/157 177/176/176 178/177/177
f 178/177/177 177/176/176 179/178/178
f 177/176/176 111/160/160 179/178/178
f 179/178/178 111/160/160 110/100/100
f 109/96/96 178/177/177 103/97/97
f 103/97/97 178/177/177 102/179/179
f 178/177/177 179/178/178 102/179/179
f 102/179/179 179/178/178 101/94/94
f 179/178/178 110/100/100 101/94/94
f 101/94/94 110/100/100 92/92/92
f 98/175/175 94/102/102 106/104/104
f 99/174/174 98/175/175 180/180/180
f 100/93/93 99/174/174 181/181/181
f 98/175/175 106/104/104 180/180/180
f 180/180/180 106/104/104 105/152/152
f 99/174/174 180/180/180 181/181/181
f 181/181/181 180/180/180 182/182/182
f 180/180/180 105/152/152 182/182/182
f 182/182/182 105/152/152 104/153/153
f 100/93/93 181/181/181 101/94/94
f 101/94/94 181/181/181 102/179/179
f 181/181/181 182/182/182 102/179/179
f 102/179/179 182/182/182 103/97/97
f 182/182/182 104/153/153 103/97/97
f 103/97/97 104/153/153 93/95/95
f 57/183/28 131/119/119 40/184/29
f 57/183/28 144/121/121 148/120/120
f 58/185/31 147/122/122 56/186/32
f 58/185/31 140/124/124 149/123/123
f 59/187/34 143/125/125 52/188/35
f 59/187/34 136/127/127 150/126/126
f 60/189/37 139/128/128 48/190/38
f 60/189/37 132/130/130 151/129/129
f 61/191/40 135/131/131 44/192/41
f 61/191/40 128/133/133 152/132/132
f 62/193/44 147/122/122 153/135/135
f 62/193/44 144/121/121 53/194/30
f 65/195/49 143/125/125 156/140/140
f 65/195/49 140/124/124 49/196/33
f 68/197/54 139/128/128 159/145/145
f 68/197/54 136/127/127 45/198/36
f 71/199/59 135/131/131 162/150/150
f 71/199/59 132/130/130 41/200/39
f 74/201/64 131/119/119 165/155/155
f 74/201/64 128/133/133 37/202/42
f 57/183/28 148/120/120 131/119/119
f 57/183/28 53/194/30 144/121/121
f 58/185/31 149/123/123 147/122/122
f 58/185/31 49/196/33 140/124/124
f 59/187/34 150/126/126 143/125/125
f 59/187/34 45/198/36 136/127/127
f 60/189/37 151/129/129 139/128/128
f 60/189/37 41/200/39 132/130/130
f 61/191/40 152/132/132 135/131/131
f 61/191/40 37/202/42 128/133/133
f 62/193/44 56/186/32 147/122/122
f 62/193/44 153/135/135 144/121/121
f 65/195/49 52/188/35 143/125/125
f 65/195/49 156/140/140 140/124/124
f 68/197/54 48/190/38 139/128/128
f 68/197/54 159/145/145 136/127/127
f 71/199/59 44/192/41 135/131/131
f 71/199/59 162/150/150 132/130/130
f 74/201/64 40/184/29 131/119/119
f 74/201/64 165/155/155 128/133/133
