# Blender 4.3.2
# www.blender.org
mtllib Fruit_Model.mtl
o Icosphere
v 0.000000 -1.000000 0.000000
v 0.723607 -0.447220 0.525725
v -0.276388 -0.447220 0.850649
v -0.894426 -0.447216 0.000000
v -0.276388 -0.447220 -0.850649
v 0.723607 -0.447220 -0.525725
v 0.276388 0.447220 0.850649
v -0.723607 0.447220 0.525725
v -0.723607 0.447220 -0.525725
v 0.276388 0.447220 -0.850649
v 0.894426 0.447216 -0.000000
v 0.000000 1.000000 -0.000000
v -0.232822 -0.657519 0.716563
v -0.162456 -0.850654 0.499995
v -0.077607 -0.967950 0.238853
v 0.203181 -0.967950 0.147618
v 0.425323 -0.850654 0.309011
v 0.609547 -0.657519 0.442856
v 0.531941 -0.502302 0.681712
v 0.262869 -0.525738 0.809012
v -0.029639 -0.502302 0.864184
v 0.812729 -0.502301 -0.295238
v 0.850648 -0.525736 0.000000
v 0.812729 -0.502301 0.295238
v 0.203181 -0.967950 -0.147618
v 0.425323 -0.850654 -0.309011
v 0.609547 -0.657519 -0.442856
v -0.753442 -0.657515 0.000000
v -0.525730 -0.850652 0.000000
v -0.251147 -0.967949 0.000000
v -0.483971 -0.502302 0.716565
v -0.688189 -0.525736 0.499997
v -0.831051 -0.502299 0.238853
v -0.232822 -0.657519 -0.716563
v -0.162456 -0.850654 -0.499995
v -0.077607 -0.967950 -0.238853
v -0.831051 -0.502299 -0.238853
v -0.688189 -0.525736 -0.499997
v -0.483971 -0.502302 -0.716565
v -0.029639 -0.502302 -0.864184
v 0.262869 -0.525738 -0.809012
v 0.531941 -0.502302 -0.681712
v 0.956626 0.251149 0.147618
v 0.951058 0.000000 0.309013
v 0.860698 -0.251151 0.442858
v 0.860698 -0.251151 -0.442858
v 0.951058 -0.000000 -0.309013
v 0.956626 0.251149 -0.147618
v 0.155215 0.251152 0.955422
v 0.000000 0.000000 1.000000
v -0.155215 -0.251152 0.955422
v 0.687159 -0.251152 0.681715
v 0.587786 0.000000 0.809017
v 0.436007 0.251152 0.864188
v -0.860698 0.251151 0.442858
v -0.951058 0.000000 0.309013
v -0.956626 -0.251149 0.147618
v -0.436007 -0.251152 0.864188
v -0.587786 0.000000 0.809017
v -0.687159 0.251152 0.681715
v -0.687159 0.251152 -0.681715
v -0.587786 -0.000000 -0.809017
v -0.436007 -0.251152 -0.864188
v -0.956626 -0.251149 -0.147618
v -0.951058 -0.000000 -0.309013
v -0.860698 0.251151 -0.442858
v 0.436007 0.251152 -0.864188
v 0.587786 -0.000000 -0.809017
v 0.687159 -0.251152 -0.681715
v -0.155215 -0.251152 -0.955422
v 0.000000 -0.000000 -1.000000
v 0.155215 0.251152 -0.955422
v 0.831051 0.502299 0.238853
v 0.688189 0.525736 0.499997
v 0.483971 0.502302 0.716565
v 0.029639 0.502302 0.864184
v -0.262869 0.525738 0.809012
v -0.531941 0.502302 0.681712
v -0.812729 0.502301 0.295238
v -0.850648 0.525736 -0.000000
v -0.812729 0.502301 -0.295238
v -0.531941 0.502302 -0.681712
v -0.262869 0.525738 -0.809012
v 0.029639 0.502302 -0.864184
v 0.483971 0.502302 -0.716565
v 0.688189 0.525736 -0.499997
v 0.831051 0.502299 -0.238853
v 0.077607 0.967950 0.238853
v 0.162456 0.850654 0.499995
v 0.232822 0.657519 0.716563
v 0.753442 0.657515 -0.000000
v 0.525730 0.850652 -0.000000
v 0.251147 0.967949 -0.000000
v -0.203181 0.967950 0.147618
v -0.425323 0.850654 0.309011
v -0.609547 0.657519 0.442856
v -0.203181 0.967950 -0.147618
v -0.425323 0.850654 -0.309011
v -0.609547 0.657519 -0.442856
v 0.077607 0.967950 -0.238853
v 0.162456 0.850654 -0.499995
v 0.232822 0.657519 -0.716563
v 0.361800 0.894429 -0.262863
v 0.638194 0.723610 -0.262864
v 0.447209 0.723612 -0.525728
v -0.138197 0.894430 -0.425319
v -0.052790 0.723612 -0.688185
v -0.361804 0.723612 -0.587778
v -0.447210 0.894429 -0.000000
v -0.670817 0.723611 -0.162457
v -0.670817 0.723611 0.162457
v -0.138197 0.894430 0.425319
v -0.361804 0.723612 0.587778
v -0.052790 0.723612 0.688185
v 0.361800 0.894429 0.262863
v 0.447209 0.723612 0.525728
v 0.638194 0.723610 0.262864
v 0.861804 0.276396 -0.425322
v 0.809019 -0.000000 -0.587782
v 0.670821 0.276397 -0.688189
v -0.138199 0.276397 -0.951055
v -0.309016 -0.000000 -0.951057
v -0.447215 0.276397 -0.850649
v -0.947213 0.276396 -0.162458
v -1.000000 0.000001 -0.000000
v -0.947213 0.276397 0.162458
v -0.447216 0.276397 0.850648
v -0.309017 -0.000001 0.951056
v -0.138199 0.276397 0.951055
v 0.670820 0.276396 0.688190
v 0.809019 -0.000002 0.587783
v 0.861804 0.276394 0.425323
v 0.309017 -0.000000 -0.951056
v 0.447216 -0.276398 -0.850648
v 0.138199 -0.276398 -0.951055
v -0.809018 -0.000000 -0.587783
v -0.670819 -0.276397 -0.688191
v -0.861803 -0.276396 -0.425324
v -0.809018 0.000000 0.587783
v -0.861803 -0.276396 0.425324
v -0.670819 -0.276397 0.688191
v 0.309017 0.000000 0.951056
v 0.138199 -0.276398 0.951055
v 0.447216 -0.276398 0.850648
v 1.000000 0.000000 0.000000
v 0.947213 -0.276396 0.162458
v 0.947213 -0.276396 -0.162458
v 0.361803 -0.723612 -0.587779
v 0.138197 -0.894429 -0.425321
v 0.052789 -0.723611 -0.688186
v -0.447211 -0.723612 -0.525727
v -0.361801 -0.894429 -0.262863
v -0.638195 -0.723609 -0.262863
v -0.638195 -0.723609 0.262864
v -0.361801 -0.894428 0.262864
v -0.447211 -0.723610 0.525729
v 0.670817 -0.723611 -0.162457
v 0.670818 -0.723610 0.162458
v 0.447211 -0.894428 0.000001
v 0.052790 -0.723612 0.688185
v 0.138199 -0.894429 0.425321
v 0.361805 -0.723611 0.587779
vn 0.0482 -0.9878 0.1482
vn 0.7230 -0.5545 0.4121
vn -0.1261 -0.9878 0.0916
vn -0.1261 -0.9878 -0.0916
vn 0.0482 -0.9878 -0.1482
vn 0.8193 -0.3987 0.4121
vn -0.1387 -0.3987 0.9065
vn -0.9050 -0.3987 0.1482
vn -0.4206 -0.3987 -0.8149
vn 0.6451 -0.3987 -0.6519
vn 0.7711 -0.3024 0.5603
vn -0.2945 -0.3024 0.9065
vn -0.9532 -0.3024 -0.0000
vn -0.2945 -0.3024 -0.9065
vn 0.7711 -0.3024 -0.5603
vn 0.3427 0.5545 0.7583
vn -0.6153 0.5545 0.5603
vn -0.7230 0.5545 -0.4121
vn 0.1685 0.5545 -0.8149
vn 0.8271 0.5545 -0.0916
vn 0.1261 0.9878 -0.0916
vn 0.3912 0.9158 -0.0915
vn 0.6441 0.7594 -0.0915
vn 0.2334 0.9575 -0.1696
vn 0.2079 0.9158 -0.3438
vn 0.5168 0.8363 -0.1830
vn 0.4911 0.7947 -0.3568
vn 0.3338 0.8363 -0.4350
vn 0.2860 0.7594 -0.5843
vn 0.7520 0.6369 -0.1696
vn 0.7261 0.5955 -0.3438
vn 0.5987 0.6726 -0.4350
vn 0.5513 0.5955 -0.5843
vn 0.3936 0.6369 -0.6628
vn 0.3427 0.5545 -0.7583
vn -0.0482 0.9878 -0.1482
vn 0.0339 0.9158 -0.4003
vn 0.1121 0.7594 -0.6409
vn -0.0891 0.9575 -0.2744
vn -0.2627 0.9158 -0.3039
vn -0.0144 0.8363 -0.5481
vn -0.1876 0.7947 -0.5773
vn -0.3105 0.8363 -0.4519
vn -0.4674 0.7594 -0.4526
vn 0.0711 0.6369 -0.7676
vn -0.1026 0.5955 -0.7968
vn -0.2287 0.6726 -0.7038
vn -0.3854 0.5955 -0.7049
vn -0.5087 0.6369 -0.5792
vn -0.6153 0.5545 -0.5603
vn -0.1558 0.9878 -0.0000
vn -0.3702 0.9158 -0.1560
vn -0.5749 0.7594 -0.3046
vn -0.2885 0.9575 -0.0000
vn -0.3702 0.9158 0.1560
vn -0.5257 0.8363 -0.1557
vn -0.6071 0.7947 -0.0000
vn -0.5257 0.8363 0.1557
vn -0.5749 0.7594 0.3046
vn -0.7081 0.6369 -0.3049
vn -0.7895 0.5955 -0.1487
vn -0.7400 0.6726 -0.0000
vn -0.7895 0.5955 0.1487
vn -0.7081 0.6369 0.3049
vn -0.7230 0.5545 0.4121
vn -0.0482 0.9878 0.1482
vn -0.2627 0.9158 0.3039
vn -0.4674 0.7594 0.4526
vn -0.0891 0.9575 0.2744
vn 0.0339 0.9158 0.4003
vn -0.3105 0.8363 0.4519
vn -0.1876 0.7947 0.5773
vn -0.0144 0.8363 0.5481
vn 0.1121 0.7594 0.6409
vn -0.5087 0.6369 0.5792
vn -0.3854 0.5955 0.7049
vn -0.2287 0.6726 0.7038
vn -0.1026 0.5955 0.7968
vn 0.0711 0.6369 0.7676
vn 0.1685 0.5545 0.8149
vn 0.1261 0.9878 0.0916
vn 0.2079 0.9158 0.3438
vn 0.2860 0.7594 0.5843
vn 0.2334 0.9575 0.1696
vn 0.3912 0.9158 0.0915
vn 0.3338 0.8363 0.4350
vn 0.4911 0.7947 0.3568
vn 0.5168 0.8363 0.1830
vn 0.6441 0.7594 0.0915
vn 0.3936 0.6369 0.6628
vn 0.5513 0.5955 0.5843
vn 0.5987 0.6726 0.4350
vn 0.7261 0.5955 0.3438
vn 0.7520 0.6369 0.1696
vn 0.8271 0.5545 0.0916
vn 0.9050 0.3987 -0.1482
vn 0.9366 0.1745 -0.3039
vn 0.8883 -0.0784 -0.4526
vn 0.8963 0.3485 -0.2744
vn 0.8039 0.4399 -0.4003
vn 0.8869 0.0962 -0.4519
vn 0.7947 0.1876 -0.5773
vn 0.7544 0.3611 -0.5481
vn 0.6291 0.4399 -0.6409
vn 0.7972 -0.1702 -0.5792
vn 0.7049 -0.0784 -0.7049
vn 0.7038 0.0962 -0.7038
vn 0.5785 0.1745 -0.7968
vn 0.5379 0.3485 -0.7676
vn 0.4206 0.3987 -0.8149
vn 0.1387 0.3987 -0.9065
vn 0.0004 0.1745 -0.9846
vn -0.1560 -0.0784 -0.9846
vn 0.0160 0.3485 -0.9372
vn -0.1323 0.4399 -0.8883
vn -0.1557 0.0962 -0.9831
vn -0.3035 0.1876 -0.9342
vn -0.2882 0.3611 -0.8869
vn -0.4151 0.4399 -0.7964
vn -0.3045 -0.1702 -0.9372
vn -0.4526 -0.0784 -0.8883
vn -0.4519 0.0962 -0.8869
vn -0.5791 0.1745 -0.7964
vn -0.5638 0.3485 -0.7488
vn -0.6451 0.3987 -0.6519
vn -0.8193 0.3987 -0.4121
vn -0.9363 0.1745 -0.3046
vn -0.9846 -0.0784 -0.1560
vn -0.8864 0.3485 -0.3049
vn -0.8857 0.4399 -0.1487
vn -0.9831 0.0962 -0.1557
vn -0.9822 0.1876 -0.0000
vn -0.9325 0.3611 -0.0000
vn -0.8857 0.4399 0.1487
vn -0.9854 -0.1702 -0.0000
vn -0.9846 -0.0784 0.1560
vn -0.9831 0.0962 0.1557
vn -0.9363 0.1745 0.3046
vn -0.8864 0.3485 0.3049
vn -0.8193 0.3987 0.4121
vn -0.6451 0.3987 0.6519
vn -0.5791 0.1745 0.7964
vn -0.4526 -0.0784 0.8883
vn -0.5638 0.3485 0.7488
vn -0.4151 0.4399 0.7964
vn -0.4519 0.0962 0.8869
vn -0.3035 0.1876 0.9342
vn -0.2882 0.3611 0.8869
vn -0.1323 0.4399 0.8883
vn -0.3045 -0.1702 0.9372
vn -0.1560 -0.0784 0.9846
vn -0.1557 0.0962 0.9831
vn 0.0004 0.1745 0.9846
vn 0.0160 0.3485 0.9372
vn 0.1387 0.3987 0.9065
vn 0.4206 0.3987 0.8149
vn 0.5785 0.1745 0.7968
vn 0.7049 -0.0784 0.7049
vn 0.5379 0.3485 0.7676
vn 0.6291 0.4399 0.6409
vn 0.7038 0.0962 0.7038
vn 0.7947 0.1876 0.5773
vn 0.7544 0.3611 0.5481
vn 0.8039 0.4399 0.4003
vn 0.7972 -0.1702 0.5792
vn 0.8883 -0.0784 0.4526
vn 0.8869 0.0962 0.4519
vn 0.9366 0.1745 0.3039
vn 0.8963 0.3485 0.2744
vn 0.9050 0.3987 0.1482
vn 0.2945 0.3024 -0.9065
vn 0.4526 0.0784 -0.8883
vn 0.5791 -0.1745 -0.7964
vn 0.3045 0.1702 -0.9372
vn 0.1560 0.0784 -0.9846
vn 0.4519 -0.0962 -0.8869
vn 0.3035 -0.1876 -0.9342
vn 0.1557 -0.0962 -0.9831
vn -0.0004 -0.1745 -0.9846
vn 0.5638 -0.3485 -0.7488
vn 0.4151 -0.4399 -0.7964
vn 0.2882 -0.3611 -0.8869
vn 0.1323 -0.4399 -0.8883
vn -0.0160 -0.3485 -0.9372
vn -0.1387 -0.3987 -0.9065
vn -0.7711 0.3024 -0.5603
vn -0.7049 0.0784 -0.7049
vn -0.5785 -0.1745 -0.7968
vn -0.7972 0.1702 -0.5792
vn -0.8883 0.0784 -0.4526
vn -0.7038 -0.0962 -0.7038
vn -0.7947 -0.1876 -0.5773
vn -0.8869 -0.0962 -0.4519
vn -0.9366 -0.1745 -0.3039
vn -0.5379 -0.3485 -0.7676
vn -0.6291 -0.4399 -0.6409
vn -0.7544 -0.3611 -0.5481
vn -0.8039 -0.4399 -0.4003
vn -0.8963 -0.3485 -0.2744
vn -0.9050 -0.3987 -0.1482
vn -0.7711 0.3024 0.5603
vn -0.8883 0.0784 0.4526
vn -0.9366 -0.1745 0.3039
vn -0.7972 0.1702 0.5792
vn -0.7049 0.0784 0.7049
vn -0.8869 -0.0962 0.4519
vn -0.7947 -0.1876 0.5773
vn -0.7038 -0.0962 0.7038
vn -0.5785 -0.1745 0.7968
vn -0.8963 -0.3485 0.2744
vn -0.8039 -0.4399 0.4003
vn -0.7544 -0.3611 0.5481
vn -0.6291 -0.4399 0.6409
vn -0.5379 -0.3485 0.7676
vn -0.4206 -0.3987 0.8149
vn 0.2945 0.3024 0.9065
vn 0.1560 0.0784 0.9846
vn -0.0004 -0.1745 0.9846
vn 0.3045 0.1702 0.9372
vn 0.4526 0.0784 0.8883
vn 0.1557 -0.0962 0.9831
vn 0.3035 -0.1876 0.9342
vn 0.4519 -0.0962 0.8869
vn 0.5791 -0.1745 0.7964
vn -0.0160 -0.3485 0.9372
vn 0.1323 -0.4399 0.8883
vn 0.2882 -0.3611 0.8869
vn 0.4151 -0.4399 0.7964
vn 0.5638 -0.3485 0.7488
vn 0.6451 -0.3987 0.6519
vn 0.9532 0.3024 -0.0000
vn 0.9846 0.0784 0.1560
vn 0.9363 -0.1745 0.3046
vn 0.9854 0.1702 -0.0000
vn 0.9846 0.0784 -0.1560
vn 0.9831 -0.0962 0.1557
vn 0.9822 -0.1876 -0.0000
vn 0.9831 -0.0962 -0.1557
vn 0.9363 -0.1745 -0.3046
vn 0.8864 -0.3485 0.3049
vn 0.8857 -0.4399 0.1487
vn 0.9325 -0.3611 -0.0000
vn 0.8857 -0.4399 -0.1487
vn 0.8864 -0.3485 -0.3049
vn 0.8193 -0.3987 -0.4121
vn 0.6153 -0.5545 -0.5603
vn 0.4674 -0.7594 -0.4526
vn 0.2627 -0.9158 -0.3039
vn 0.5087 -0.6369 -0.5792
vn 0.3854 -0.5955 -0.7049
vn 0.3105 -0.8363 -0.4519
vn 0.1876 -0.7947 -0.5773
vn 0.2287 -0.6726 -0.7038
vn 0.1026 -0.5955 -0.7968
vn 0.0891 -0.9575 -0.2744
vn -0.0339 -0.9158 -0.4003
vn 0.0144 -0.8363 -0.5481
vn -0.1121 -0.7594 -0.6409
vn -0.0711 -0.6369 -0.7676
vn -0.1685 -0.5545 -0.8149
vn -0.3427 -0.5545 -0.7583
vn -0.2860 -0.7594 -0.5843
vn -0.2079 -0.9158 -0.3438
vn -0.3936 -0.6369 -0.6628
vn -0.5513 -0.5955 -0.5843
vn -0.3338 -0.8363 -0.4350
vn -0.4911 -0.7947 -0.3568
vn -0.5987 -0.6726 -0.4350
vn -0.7261 -0.5955 -0.3438
vn -0.2334 -0.9575 -0.1696
vn -0.3912 -0.9158 -0.0915
vn -0.5168 -0.8363 -0.1830
vn -0.6441 -0.7594 -0.0915
vn -0.7520 -0.6369 -0.1696
vn -0.8271 -0.5545 -0.0916
vn -0.8271 -0.5545 0.0916
vn -0.6441 -0.7594 0.0915
vn -0.3912 -0.9158 0.0915
vn -0.7520 -0.6369 0.1696
vn -0.7261 -0.5955 0.3438
vn -0.5168 -0.8363 0.1830
vn -0.4911 -0.7947 0.3568
vn -0.5987 -0.6726 0.4350
vn -0.5513 -0.5955 0.5843
vn -0.2334 -0.9575 0.1696
vn -0.2079 -0.9158 0.3438
vn -0.3338 -0.8363 0.4350
vn -0.2860 -0.7594 0.5843
vn -0.3936 -0.6369 0.6628
vn -0.3427 -0.5545 0.7583
vn 0.7230 -0.5545 -0.4121
vn 0.7895 -0.5955 -0.1487
vn 0.7895 -0.5955 0.1487
vn 0.7081 -0.6369 -0.3049
vn 0.5749 -0.7594 -0.3046
vn 0.7400 -0.6726 -0.0000
vn 0.6071 -0.7947 -0.0000
vn 0.5257 -0.8363 -0.1557
vn 0.3702 -0.9158 -0.1559
vn 0.7081 -0.6369 0.3049
vn 0.5749 -0.7594 0.3046
vn 0.5257 -0.8363 0.1557
vn 0.3702 -0.9158 0.1559
vn 0.2885 -0.9575 -0.0000
vn 0.1558 -0.9878 -0.0000
vn -0.1685 -0.5545 0.8149
vn -0.1121 -0.7594 0.6409
vn -0.0339 -0.9158 0.4003
vn -0.0711 -0.6369 0.7676
vn 0.1026 -0.5955 0.7968
vn 0.0144 -0.8363 0.5481
vn 0.1876 -0.7947 0.5773
vn 0.2287 -0.6726 0.7038
vn 0.3854 -0.5955 0.7049
vn 0.0891 -0.9575 0.2744
vn 0.2627 -0.9158 0.3039
vn 0.3105 -0.8363 0.4519
vn 0.4674 -0.7594 0.4526
vn 0.5087 -0.6369 0.5792
vn 0.6153 -0.5545 0.5603
vt 0.698862 0.310666
vt 0.694901 0.275271
vt 0.731181 0.295813
vt 0.681385 0.140844
vt 0.685698 0.185336
vt 0.639740 0.162365
vt 0.723165 0.336834
vt 0.681264 0.342014
vt 0.663754 0.303439
vt 0.645650 0.103664
vt 0.853396 0.239121
vt 0.819335 0.207145
vt 0.876454 0.193097
vt 0.817856 0.434636
vt 0.836673 0.391510
vt 0.869266 0.440810
vt 0.613963 0.469198
vt 0.664881 0.471893
vt 0.628930 0.523355
vt 0.529066 0.271266
vt 0.534795 0.319639
vt 0.480315 0.291851
vt 0.709416 0.097593
vt 0.903469 0.251103
vt 0.823665 0.486183
vt 0.559323 0.497561
vt 0.497921 0.229004
vt 0.148274 0.770512
vt 0.144708 0.724420
vt 0.187687 0.750910
vt 0.321770 0.860680
vt 0.276803 0.849985
vt 0.315161 0.817177
vt 0.460348 0.723214
vt 0.436560 0.762681
vt 0.417066 0.716297
vt 0.373519 0.550550
vt 0.402789 0.585277
vt 0.353206 0.588918
vt 0.181076 0.577834
vt 0.223818 0.560417
vt 0.211732 0.609339
vt 0.273052 0.672137
vt 0.312735 0.666258
vt 0.296968 0.696516
vt 0.243718 0.642142
vt 0.287716 0.634016
vt 0.256848 0.597012
vt 0.332086 0.629195
vt 0.306746 0.589832
vt 0.275424 0.548601
vt 0.328115 0.545678
vt 0.330636 0.702137
vt 0.353450 0.668331
vt 0.378764 0.627607
vt 0.371962 0.708962
vt 0.401304 0.672448
vt 0.430113 0.629794
vt 0.449996 0.678428
vt 0.302029 0.730303
vt 0.341343 0.741573
vt 0.388210 0.753031
vt 0.308291 0.771826
vt 0.352278 0.788601
vt 0.402213 0.803062
vt 0.361517 0.837113
vt 0.266382 0.711751
vt 0.267749 0.752665
vt 0.271220 0.800882
vt 0.228773 0.730470
vt 0.226282 0.777521
vt 0.227779 0.829551
vt 0.182879 0.801170
vt 0.234568 0.686004
vt 0.189748 0.704082
vt 0.198223 0.654172
vt 0.149171 0.671503
vt 0.162463 0.620105
vt 0.176045 0.527003
vt 0.177616 0.454018
vt 0.234556 0.503858
vt 0.426798 0.242466
vt 0.461429 0.165252
vt 0.258833 0.429091
vt 0.302407 0.494430
vt 0.414940 0.326223
vt 0.343773 0.431141
vt 0.364657 0.500833
vt 0.419309 0.530881
vt 0.484190 0.512613
vt 0.458472 0.577674
vt 0.535995 0.574065
vt 0.489722 0.637281
vt 0.576263 0.575512
vt 0.659275 0.592191
vt 0.563141 0.654552
vt 0.504644 0.698072
vt 0.494788 0.760816
vt 0.537324 0.820104
vt 0.461846 0.814420
vt 0.892142 0.509250
vt 0.823941 0.559495
vt 0.487355 0.888794
vt 0.413132 0.862796
vt 0.942481 0.441120
vt 0.418347 0.938325
vt 0.359260 0.895428
vt 0.296305 0.905008
vt 0.252661 0.963552
vt 0.235143 0.889881
vt 0.948470 0.194840
vt 0.972142 0.276165
vt 0.172028 0.936833
vt 0.174173 0.858197
vt 0.901430 0.124409
vt 0.103816 0.886208
vt 0.126635 0.816839
vt 0.098275 0.759809
vt 0.029193 0.736137
vt 0.093988 0.696949
vt 0.671448 0.036362
vt 0.755986 0.041240
vt 0.030002 0.651193
vt 0.105529 0.629225
vt 0.589335 0.057016
vt 0.057387 0.570780
vt 0.130397 0.571356
vt 0.423599 0.459981
vt 0.486236 0.358031
vt 0.424286 0.410350
vt 0.508307 0.436018
vt 0.550592 0.375676
vt 0.578889 0.429412
vt 0.563436 0.739386
vt 0.695424 0.524428
vt 0.743967 0.587744
vt 0.764819 0.511297
vt 0.720937 0.466600
vt 0.774279 0.453040
vt 0.337496 0.964021
vt 0.894326 0.382456
vt 0.970175 0.360954
vt 0.906618 0.314376
vt 0.850547 0.339362
vt 0.855924 0.285796
vt 0.054663 0.817061
vt 0.830070 0.150009
vt 0.835223 0.071427
vt 0.770104 0.115730
vt 0.774969 0.176824
vt 0.726288 0.153996
vt 0.108261 0.502886
vt 0.589321 0.132934
vt 0.517074 0.101326
vt 0.536394 0.177908
vt 0.595997 0.194243
vt 0.557528 0.232835
vt 0.573581 0.282805
vt 0.620556 0.293980
vt 0.586552 0.330942
vt 0.637903 0.338302
vt 0.608275 0.381654
vt 0.659570 0.381205
vt 0.635951 0.425218
vt 0.686736 0.423677
vt 0.707087 0.376644
vt 0.739505 0.415556
vt 0.753268 0.368529
vt 0.786256 0.402545
vt 0.800333 0.356521
vt 0.763409 0.323240
vt 0.809758 0.305575
vt 0.770473 0.277647
vt 0.812963 0.257927
vt 0.606666 0.246731
vt 0.646114 0.212426
vt 0.654607 0.261638
vt 0.690370 0.232092
vt 0.774524 0.229666
vt 0.731208 0.253566
vt 0.729671 0.204089
s 1
f 1/1/1 16/2/1 15/3/1
f 2/4/2 18/5/2 24/6/2
f 1/1/3 15/3/3 30/7/3
f 1/1/4 30/7/4 36/8/4
f 1/1/5 36/8/5 25/9/5
f 2/4/6 24/6/6 45/10/6
f 3/11/7 21/12/7 51/13/7
f 4/14/8 33/15/8 57/16/8
f 5/17/9 39/18/9 63/19/9
f 6/20/10 42/21/10 69/22/10
f 2/4/11 45/10/11 52/23/11
f 3/11/12 51/13/12 58/24/12
f 4/14/13 57/16/13 64/25/13
f 5/17/14 63/19/14 70/26/14
f 6/20/15 69/22/15 46/27/15
f 7/28/16 75/29/16 90/30/16
f 8/31/17 78/32/17 96/33/17
f 9/34/18 81/35/18 99/36/18
f 10/37/19 84/38/19 102/39/19
f 11/40/20 87/41/20 91/42/20
f 93/43/21 100/44/21 12/45/21
f 92/46/22 103/47/22 93/43/22
f 91/42/23 104/48/23 92/46/23
f 93/43/24 103/47/24 100/44/24
f 103/47/25 101/49/25 100/44/25
f 92/46/26 104/48/26 103/47/26
f 104/48/27 105/50/27 103/47/27
f 103/47/28 105/50/28 101/49/28
f 105/50/29 102/39/29 101/49/29
f 91/42/30 87/41/30 104/48/30
f 87/41/31 86/51/31 104/48/31
f 104/48/32 86/51/32 105/50/32
f 86/51/33 85/52/33 105/50/33
f 105/50/34 85/52/34 102/39/34
f 85/52/35 10/37/35 102/39/35
f 100/44/36 97/53/36 12/45/36
f 101/49/37 106/54/37 100/44/37
f 102/39/38 107/55/38 101/49/38
f 100/44/39 106/54/39 97/53/39
f 106/54/40 98/56/40 97/53/40
f 101/49/41 107/55/41 106/54/41
f 107/55/42 108/57/42 106/54/42
f 106/54/43 108/57/43 98/56/43
f 108/57/44 99/36/44 98/56/44
f 102/39/45 84/38/45 107/55/45
f 84/38/46 83/58/46 107/55/46
f 107/55/47 83/58/47 108/57/47
f 83/58/48 82/59/48 108/57/48
f 108/57/49 82/59/49 99/36/49
f 82/59/50 9/34/50 99/36/50
f 97/53/51 94/60/51 12/45/51
f 98/56/52 109/61/52 97/53/52
f 99/36/53 110/62/53 98/56/53
f 97/53/54 109/61/54 94/60/54
f 109/61/55 95/63/55 94/60/55
f 98/56/56 110/62/56 109/61/56
f 110/62/57 111/64/57 109/61/57
f 109/61/58 111/64/58 95/63/58
f 111/64/59 96/33/59 95/63/59
f 99/36/60 81/35/60 110/62/60
f 81/35/61 80/65/61 110/62/61
f 110/62/62 80/65/62 111/64/62
f 80/65/63 79/66/63 111/64/63
f 111/64/64 79/66/64 96/33/64
f 79/66/65 8/31/65 96/33/65
f 94/60/66 88/67/66 12/45/66
f 95/63/67 112/68/67 94/60/67
f 96/33/68 113/69/68 95/63/68
f 94/60/69 112/68/69 88/67/69
f 112/68/70 89/70/70 88/67/70
f 95/63/71 113/69/71 112/68/71
f 113/69/72 114/71/72 112/68/72
f 112/68/73 114/71/73 89/70/73
f 114/71/74 90/30/74 89/70/74
f 96/33/75 78/32/75 113/69/75
f 78/32/76 77/72/76 113/69/76
f 113/69/77 77/72/77 114/71/77
f 77/72/78 76/73/78 114/71/78
f 114/71/79 76/73/79 90/30/79
f 76/73/80 7/28/80 90/30/80
f 88/67/81 93/43/81 12/45/81
f 89/70/82 115/74/82 88/67/82
f 90/30/83 116/75/83 89/70/83
f 88/67/84 115/74/84 93/43/84
f 115/74/85 92/46/85 93/43/85
f 89/70/86 116/75/86 115/74/86
f 116/75/87 117/76/87 115/74/87
f 115/74/88 117/76/88 92/46/88
f 117/76/89 91/42/89 92/46/89
f 90/30/90 75/29/90 116/75/90
f 75/29/91 74/77/91 116/75/91
f 116/75/92 74/77/92 117/76/92
f 74/77/93 73/78/93 117/76/93
f 117/76/94 73/78/94 91/42/94
f 73/78/95 11/40/95 91/42/95
f 48/79/96 87/41/96 11/40/96
f 47/80/97 118/81/97 48/79/97
f 46/27/98 119/82/98 47/83/98
f 48/79/99 118/81/99 87/41/99
f 118/81/100 86/51/100 87/41/100
f 47/80/101 119/84/101 118/81/101
f 119/84/102 120/85/102 118/81/102
f 118/81/103 120/85/103 86/51/103
f 120/85/104 85/52/104 86/51/104
f 46/27/105 69/22/105 119/82/105
f 69/22/106 68/86/106 119/82/106
f 119/84/107 68/87/107 120/85/107
f 68/87/108 67/88/108 120/85/108
f 120/85/109 67/88/109 85/52/109
f 67/88/110 10/37/110 85/52/110
f 72/89/111 84/38/111 10/37/111
f 71/90/112 121/91/112 72/89/112
f 70/26/113 122/92/113 71/90/113
f 72/89/114 121/91/114 84/38/114
f 121/91/115 83/58/115 84/38/115
f 71/90/116 122/92/116 121/91/116
f 122/92/117 123/93/117 121/91/117
f 121/91/118 123/93/118 83/58/118
f 123/93/119 82/59/119 83/58/119
f 70/26/120 63/19/120 122/94/120
f 63/19/121 62/95/121 122/94/121
f 122/92/122 62/96/122 123/93/122
f 62/96/123 61/97/123 123/93/123
f 123/93/124 61/97/124 82/59/124
f 61/97/125 9/34/125 82/59/125
f 66/98/126 81/35/126 9/34/126
f 65/99/127 124/100/127 66/98/127
f 64/25/128 125/101/128 65/102/128
f 66/98/129 124/100/129 81/35/129
f 124/100/130 80/65/130 81/35/130
f 65/99/131 125/103/131 124/100/131
f 125/103/132 126/104/132 124/100/132
f 124/100/133 126/104/133 80/65/133
f 126/104/134 79/66/134 80/65/134
f 64/25/135 57/16/135 125/101/135
f 57/16/136 56/105/136 125/101/136
f 125/103/137 56/106/137 126/104/137
f 56/106/138 55/107/138 126/104/138
f 126/104/139 55/107/139 79/66/139
f 55/107/140 8/31/140 79/66/140
f 60/108/141 78/32/141 8/31/141
f 59/109/142 127/110/142 60/108/142
f 58/24/143 128/111/143 59/112/143
f 60/108/144 127/110/144 78/32/144
f 127/110/145 77/72/145 78/32/145
f 59/109/146 128/113/146 127/110/146
f 128/113/147 129/114/147 127/110/147
f 127/110/148 129/114/148 77/72/148
f 129/114/149 76/73/149 77/72/149
f 58/24/150 51/13/150 128/111/150
f 51/13/151 50/115/151 128/111/151
f 128/113/152 50/116/152 129/114/152
f 50/116/153 49/117/153 129/114/153
f 129/114/154 49/117/154 76/73/154
f 49/117/155 7/28/155 76/73/155
f 54/118/156 75/29/156 7/28/156
f 53/119/157 130/120/157 54/118/157
f 52/23/158 131/121/158 53/122/158
f 54/118/159 130/120/159 75/29/159
f 130/120/160 74/77/160 75/29/160
f 53/119/161 131/123/161 130/120/161
f 131/123/162 132/124/162 130/120/162
f 130/120/163 132/124/163 74/77/163
f 132/124/164 73/78/164 74/77/164
f 52/23/165 45/10/165 131/121/165
f 45/10/166 44/125/166 131/121/166
f 131/123/167 44/126/167 132/124/167
f 44/126/168 43/127/168 132/124/168
f 132/124/169 43/127/169 73/78/169
f 43/127/170 11/40/170 73/78/170
f 67/88/171 72/89/171 10/37/171
f 68/87/172 133/128/172 67/88/172
f 69/22/173 134/129/173 68/86/173
f 67/88/174 133/128/174 72/89/174
f 133/128/175 71/90/175 72/89/175
f 68/86/176 134/129/176 133/130/176
f 134/129/177 135/131/177 133/130/177
f 133/128/178 135/131/178 71/90/178
f 135/131/179 70/26/179 71/90/179
f 69/22/180 42/21/180 134/129/180
f 42/21/181 41/132/181 134/129/181
f 134/129/182 41/132/182 135/131/182
f 41/132/183 40/133/183 135/131/183
f 135/131/184 40/133/184 70/26/184
f 40/133/185 5/17/185 70/26/185
f 61/97/186 66/98/186 9/34/186
f 62/96/187 136/134/187 61/97/187
f 63/19/188 137/135/188 62/95/188
f 61/97/189 136/134/189 66/98/189
f 136/134/190 65/99/190 66/98/190
f 62/95/191 137/135/191 136/136/191
f 137/135/192 138/137/192 136/136/192
f 136/136/193 138/137/193 65/102/193
f 138/137/194 64/25/194 65/102/194
f 63/19/195 39/18/195 137/135/195
f 39/18/196 38/138/196 137/135/196
f 137/135/197 38/138/197 138/137/197
f 38/138/198 37/139/198 138/137/198
f 138/137/199 37/139/199 64/25/199
f 37/139/200 4/14/200 64/25/200
f 55/107/201 60/108/201 8/31/201
f 56/106/202 139/140/202 55/107/202
f 57/16/203 140/141/203 56/105/203
f 55/107/204 139/140/204 60/108/204
f 139/140/205 59/109/205 60/108/205
f 56/105/206 140/141/206 139/142/206
f 140/141/207 141/143/207 139/142/207
f 139/142/208 141/143/208 59/112/208
f 141/143/209 58/24/209 59/112/209
f 57/16/210 33/15/210 140/141/210
f 33/15/211 32/144/211 140/141/211
f 140/141/212 32/144/212 141/143/212
f 32/144/213 31/145/213 141/143/213
f 141/143/214 31/145/214 58/24/214
f 31/145/215 3/11/215 58/24/215
f 49/117/216 54/118/216 7/28/216
f 50/116/217 142/146/217 49/117/217
f 51/13/218 143/147/218 50/115/218
f 49/117/219 142/146/219 54/118/219
f 142/146/220 53/119/220 54/118/220
f 50/115/221 143/147/221 142/148/221
f 143/147/222 144/149/222 142/148/222
f 142/148/223 144/149/223 53/122/223
f 144/149/224 52/23/224 53/122/224
f 51/13/225 21/12/225 143/147/225
f 21/12/226 20/150/226 143/147/226
f 143/147/227 20/150/227 144/149/227
f 20/150/228 19/151/228 144/149/228
f 144/149/229 19/151/229 52/23/229
f 19/151/230 2/4/230 52/23/230
f 43/127/231 48/79/231 11/40/231
f 44/126/232 145/152/232 43/127/232
f 45/10/233 146/153/233 44/125/233
f 43/127/234 145/152/234 48/79/234
f 145/152/235 47/80/235 48/79/235
f 44/125/236 146/153/236 145/154/236
f 146/153/237 147/155/237 145/154/237
f 145/154/238 147/155/238 47/83/238
f 147/155/239 46/27/239 47/83/239
f 45/10/240 24/6/240 146/153/240
f 24/6/241 23/156/241 146/153/241
f 146/153/242 23/156/242 147/155/242
f 23/156/243 22/157/243 147/155/243
f 147/155/244 22/157/244 46/27/244
f 22/157/245 6/20/245 46/27/245
f 27/158/246 42/21/246 6/20/246
f 26/159/247 148/160/247 27/158/247
f 25/9/248 149/161/248 26/159/248
f 27/158/249 148/160/249 42/21/249
f 148/160/250 41/132/250 42/21/250
f 26/159/251 149/161/251 148/160/251
f 149/161/252 150/162/252 148/160/252
f 148/160/253 150/162/253 41/132/253
f 150/162/254 40/133/254 41/132/254
f 25/9/255 36/8/255 149/161/255
f 36/8/256 35/163/256 149/161/256
f 149/161/257 35/163/257 150/162/257
f 35/163/258 34/164/258 150/162/258
f 150/162/259 34/164/259 40/133/259
f 34/164/260 5/17/260 40/133/260
f 34/164/261 39/18/261 5/17/261
f 35/163/262 151/165/262 34/164/262
f 36/8/263 152/166/263 35/163/263
f 34/164/264 151/165/264 39/18/264
f 151/165/265 38/138/265 39/18/265
f 35/163/266 152/166/266 151/165/266
f 152/166/267 153/167/267 151/165/267
f 151/165/268 153/167/268 38/138/268
f 153/167/269 37/139/269 38/138/269
f 36/8/270 30/7/270 152/166/270
f 30/7/271 29/168/271 152/166/271
f 152/166/272 29/168/272 153/167/272
f 29/168/273 28/169/273 153/167/273
f 153/167/274 28/169/274 37/139/274
f 28/169/275 4/14/275 37/139/275
f 28/169/276 33/15/276 4/14/276
f 29/168/277 154/170/277 28/169/277
f 30/7/278 155/171/278 29/168/278
f 28/169/279 154/170/279 33/15/279
f 154/170/280 32/144/280 33/15/280
f 29/168/281 155/171/281 154/170/281
f 155/171/282 156/172/282 154/170/282
f 154/170/283 156/172/283 32/144/283
f 156/172/284 31/145/284 32/144/284
f 30/7/285 15/3/285 155/171/285
f 15/3/286 14/173/286 155/171/286
f 155/171/287 14/173/287 156/172/287
f 14/173/288 13/174/288 156/172/288
f 156/172/289 13/174/289 31/145/289
f 13/174/290 3/11/290 31/145/290
f 22/157/291 27/158/291 6/20/291
f 23/156/292 157/175/292 22/157/292
f 24/6/293 158/176/293 23/156/293
f 22/157/294 157/175/294 27/158/294
f 157/175/295 26/159/295 27/158/295
f 23/156/296 158/176/296 157/175/296
f 158/176/297 159/177/297 157/175/297
f 157/175/298 159/177/298 26/159/298
f 159/177/299 25/9/299 26/159/299
f 24/6/300 18/5/300 158/176/300
f 18/5/301 17/178/301 158/176/301
f 158/176/302 17/178/302 159/177/302
f 17/178/303 16/2/303 159/177/303
f 159/177/304 16/2/304 25/9/304
f 16/2/305 1/1/305 25/9/305
f 13/174/306 21/12/306 3/11/306
f 14/173/307 160/179/307 13/174/307
f 15/3/308 161/180/308 14/173/308
f 13/174/309 160/179/309 21/12/309
f 160/179/310 20/150/310 21/12/310
f 14/173/311 161/180/311 160/179/311
f 161/180/312 162/181/312 160/179/312
f 160/179/313 162/181/313 20/150/313
f 162/181/314 19/151/314 20/150/314
f 15/3/315 16/2/315 161/180/315
f 16/2/316 17/178/316 161/180/316
f 161/180/317 17/178/317 162/181/317
f 17/178/318 18/5/318 162/181/318
f 162/181/319 18/5/319 19/151/319
f 18/5/320 2/4/320 19/151/320
